# xmcd
#
# Track frame offsets: 
#        150
#        21175
#        41320
#        45348
#        59785
#        78415
#        97420
#
# Disc length: 1522 seconds
#
# Revision: 2
# Processed by: cddbd v1.5.2PL0 Copyright (c) Steve Scherf et al.
# Submitted via: ExactAudioCopy v0.99pb3
#
DISCID=5705f007
DTITLE=Muskee - Cut the Luxe
DYEAR=1991
DGENRE=
TTITLE0=Brother Booze
TTITLE1=Help me
TTITLE2=Blue interlude
TTITLE3=Sleepin' dog
TTITLE4=Broken wings
TTITLE5=Hit rough
TTITLE6=Tough on me
EXTD=
EXTT0=
EXTT1=
EXTT2=
EXTT3=
EXTT4=
EXTT5=
EXTT6=
PLAYORDER=
